<?xml version="1.0" standalone="no"?>
<!DOCTYPE svg PUBLIC "-//W3C//DTD SVG 20010904//EN"
 "http://www.w3.org/TR/2001/REC-SVG-20010904/DTD/svg10.dtd">
<svg version="1.0" xmlns="http://www.w3.org/2000/svg"
 width="512.000000pt" height="512.000000pt" viewBox="0 0 512.000000 512.000000"
 preserveAspectRatio="xMidYMid meet">
<metadata>
Created by potrace 1.16, written by Peter Selinger 2001-2019
</metadata>
<g transform="translate(0.000000,512.000000) scale(0.100000,-0.100000)"
fill="#000000" stroke="none">
<path d="M2790 4421 l0 -700 -225 -192 -225 -193 0 -231 0 -231 35 -34 35 -34
0 -1039 0 -1039 -35 -59 -35 -60 0 -305 0 -304 940 0 940 0 0 23 c0 12 -3 46
-6 75 l-7 52 -185 0 -184 0 4 61 c8 106 -28 99 525 99 l474 0 24 -25 c21 -20
25 -34 25 -80 l0 -55 -115 0 -115 0 0 -75 0 -75 196 0 196 0 -4 148 c-4 161
-15 198 -75 253 -57 53 -88 62 -235 67 l-138 5 0 347 0 347 65 28 c181 77 341
246 406 431 45 126 48 178 49 762 l0 552 -570 0 -570 0 0 200 0 199 -220 188
-220 188 0 702 0 703 -375 0 -375 0 0 -699z m590 -639 l0 -137 225 -193 225
-192 0 -160 0 -160 -110 0 -110 0 0 -265 0 -265 -445 0 -445 0 0 -525 0 -525
445 0 445 0 1 228 c1 171 4 215 10 177 17 -89 59 -202 100 -265 l39 -61 0
-378 0 -379 35 -62 c29 -51 35 -72 35 -121 0 -34 -4 -59 -10 -59 -6 0 -30 -18
-54 -41 -53 -48 -76 -107 -76 -191 l0 -58 -600 0 -600 0 0 201 0 201 35 62 35
63 0 1099 0 1100 -35 34 -35 34 0 157 0 157 225 192 225 191 0 140 0 139 220
0 220 0 0 -138z m1580 -1107 l0 -115 -600 0 -600 0 0 108 c0 60 3 112 7 115 3
4 273 7 600 7 l593 0 0 -115z m0 -557 c0 -337 -7 -386 -70 -507 -127 -244
-404 -369 -669 -302 -46 11 -113 37 -150 57 -87 49 -186 151 -233 239 -63 122
-68 155 -68 499 l0 306 595 0 595 0 0 -292z m-883 -929 l63 -24 0 -347 0 -348
-80 0 -80 0 0 71 c0 62 -4 78 -35 133 l-35 63 0 271 0 272 53 -34 c28 -18 80
-44 114 -57z m363 -389 l0 -340 -75 0 -75 0 0 340 0 340 75 0 75 0 0 -340z"/>
<path d="M3010 2944 c-78 -20 -207 -86 -260 -133 l-45 -40 52 -52 53 -53 27
22 c169 135 359 157 573 68 11 -5 26 11 53 56 l37 63 -58 27 c-31 15 -84 34
-117 43 -74 19 -241 19 -315 -1z"/>
<path d="M2784 1047 c-3 -8 -4 -43 -2 -78 l3 -64 75 0 75 0 0 75 0 75 -73 3
c-55 2 -74 -1 -78 -11z"/>
<path d="M3087 1054 c-4 -4 -7 -38 -7 -76 l0 -68 80 0 81 0 -3 73 -3 72 -70 3
c-39 1 -74 0 -78 -4z"/>
<path d="M3387 1054 c-4 -4 -7 -38 -7 -76 l0 -68 80 0 81 0 -3 73 -3 72 -70 3
c-39 1 -74 0 -78 -4z"/>
<path d="M2720 685 l0 -75 450 0 450 0 0 75 0 75 -450 0 -450 0 0 -75z"/>
<path d="M1269 3142 c-86 -29 -163 -89 -205 -160 -1 -2 -28 4 -59 13 -121 36
-258 2 -345 -85 -88 -88 -121 -229 -81 -347 12 -34 21 -80 21 -101 l0 -40
-158 -4 c-130 -4 -167 -9 -213 -27 -107 -41 -189 -136 -215 -250 -17 -69 -20
-1329 -4 -1399 25 -109 98 -200 198 -249 54 -27 65 -28 225 -31 l167 -4 0
-229 0 -229 795 0 795 0 0 611 0 612 -61 -7 c-34 -3 -70 -6 -80 -6 -18 0 -19
-21 -19 -530 l0 -530 -635 0 -635 0 0 1130 0 1130 335 0 335 0 0 -185 c0 -208
9 -267 50 -323 36 -50 118 -92 179 -92 65 0 143 39 180 90 42 58 51 116 51
325 l0 185 70 0 70 0 0 -525 0 -525 80 0 80 0 0 539 0 538 34 66 c55 106 57
216 6 322 -28 58 -96 124 -160 154 -47 22 -68 26 -150 26 -83 0 -101 -4 -146
-27 l-50 -26 -19 34 c-27 50 -98 112 -162 141 -75 34 -195 41 -274 15z m222
-165 c52 -27 104 -99 114 -157 6 -35 11 -41 43 -49 99 -25 99 -25 133 14 43
49 84 68 145 68 62 0 104 -22 147 -75 38 -47 48 -123 24 -181 l-16 -37 -175 0
-176 0 0 -279 0 -280 -26 -20 c-15 -12 -34 -21 -44 -21 -10 0 -29 9 -44 21
l-26 20 0 280 0 279 -420 0 -419 0 -16 30 c-17 34 -20 106 -4 147 41 109 187
152 281 83 21 -16 37 -20 56 -15 95 23 99 24 117 64 19 44 64 90 110 114 47
25 143 22 196 -6z m-881 -792 l0 -75 -94 0 c-102 0 -136 -14 -180 -73 -21 -28
-21 -36 -21 -597 0 -559 0 -569 21 -596 43 -59 68 -69 175 -72 l99 -4 0 -79 0
-79 -128 0 c-153 0 -213 15 -259 62 -67 71 -64 26 -61 777 l3 679 30 43 c17
23 50 53 74 66 40 21 56 23 193 23 l148 0 0 -75z m-10 -745 l0 -520 -65 0 -65
0 0 520 0 520 65 0 65 0 0 -520z"/>
<path d="M4360 75 l0 -75 80 0 c91 0 86 -6 74 98 l-7 52 -73 0 -74 0 0 -75z"/>
</g>
</svg>
